<?xml version="1.0" encoding="UTF-8" standalone="no"?>
<!DOCTYPE svg PUBLIC "-//W3C//DTD SVG 1.1//EN" "http://www.w3.org/Graphics/SVG/1.1/DTD/svg11.dtd">
<svg width="100%" height="100%" viewBox="0 0 300 300" version="1.1" xmlns="http://www.w3.org/2000/svg" xmlns:xlink="http://www.w3.org/1999/xlink" xml:space="preserve" xmlns:serif="http://www.serif.com/" style="fill-rule:evenodd;clip-rule:evenodd;stroke-linejoin:round;stroke-miterlimit:2;" fill="#fff">
    <rect id="アートボード1" x="0" y="0" width="300" height="300" style="fill:none;"/>
    <g id="アートボード11" serif:id="アートボード1">
        <g transform="matrix(3.4457,0,0,3.4457,-425.088,-221.911)">
            <path d="M156.939,112.963C156.831,112.387 156.775,111.794 156.775,111.187C156.775,105.927 160.998,101.657 166.199,101.657C171.4,101.657 175.623,105.927 175.623,111.187C175.623,111.809 175.563,112.418 175.45,113.007C175.476,114.689 176.864,116.046 178.57,116.046C178.581,116.046 178.592,116.046 178.604,116.045L178.604,116.059C184.894,116.348 189.914,121.605 189.914,128.037C189.914,134.655 184.601,140.028 178.056,140.028C175.397,140.028 172.94,139.141 170.961,137.643C169.52,137.121 167.941,136.833 166.286,136.833C164.494,136.833 162.791,137.171 161.254,137.778C160.419,138.385 159.502,138.886 158.525,139.259C158.482,139.289 158.441,139.32 158.399,139.35L158.278,139.35C157.046,139.789 155.721,140.028 154.341,140.028C147.797,140.028 142.484,134.655 142.484,128.037C142.484,121.608 147.498,116.354 153.785,116.059L153.785,116.045C153.796,116.046 153.808,116.046 153.819,116.046C155.54,116.046 156.937,114.664 156.939,112.963Z"/>
        </g>
        <g transform="matrix(3.4457,0,0,3.4457,-425.088,-221.911)">
            <ellipse cx="156.53" cy="86.833" rx="8.454" ry="10.992"/>
        </g>
        <g transform="matrix(3.4457,0,0,3.4457,-345.247,-217.434)">
            <ellipse cx="156.53" cy="86.833" rx="8.454" ry="10.992"/>
        </g>
        <g transform="matrix(2.28752,2.57685,-2.57685,2.28752,109.122,-459.507)">
            <ellipse cx="156.53" cy="86.833" rx="8.454" ry="10.992"/>
        </g>
        <g transform="matrix(2.5965,-2.26518,2.26518,2.5965,-547.659,260.685)">
            <ellipse cx="156.53" cy="86.833" rx="8.454" ry="10.992"/>
        </g>
    </g>
</svg>
